<svg xmlns="http://www.w3.org/2000/svg" viewBox="0 0 135.41 135.41"><defs><style>.cls-1{fill:#d83d3d;}.cls-2{fill:#fff;}</style></defs><g id="Layer_2" data-name="Layer 2"><g id="Layer_1-2" data-name="Layer 1"><circle class="cls-1" cx="67.71" cy="67.7" r="58.86"/><path class="cls-1" d="M113.55,24.16a2.78,2.78,0,0,1-2.64-2.72,2.85,2.85,0,0,1,2.76-2.74,2.81,2.81,0,0,1,2.71,2.78A2.86,2.86,0,0,1,113.55,24.16Z"/><path class="cls-1" d="M21.52,116.8a2.78,2.78,0,0,1-2.64-2.72,2.85,2.85,0,0,1,2.76-2.74,2.81,2.81,0,0,1,2.71,2.78A2.87,2.87,0,0,1,21.52,116.8Z"/><path class="cls-1" d="M67.7,135.41a67.49,67.49,0,0,1-40-13.09,2.5,2.5,0,1,1,3-4,62.63,62.63,0,0,0,27.94,11.46,63.92,63.92,0,0,0,18.22,0,63,63,0,0,0,53.6-62A62.1,62.1,0,0,0,117.12,29.1,2.5,2.5,0,0,1,121.06,26a67,67,0,0,1,14.35,41.69,67.66,67.66,0,0,1-67.71,67.7Z"/><path class="cls-1" d="M15.87,109.76a2.49,2.49,0,0,1-2-1A67.07,67.07,0,0,1,0,67.71,68,68,0,0,1,57.87.7,69.62,69.62,0,0,1,77.53.7,67.65,67.65,0,0,1,108.91,14a2.5,2.5,0,1,1-3,4,62.65,62.65,0,0,0-29-12.29,63.92,63.92,0,0,0-18.22,0A63,63,0,0,0,5,67.71a62.09,62.09,0,0,0,12.85,38,2.5,2.5,0,0,1-2,4Z"/><path class="cls-2" d="M72.14,67.7,93.61,45.79a3.17,3.17,0,0,0-4.53-4.44L67.71,63.17,46.33,41.35a3.17,3.17,0,0,0-4.53,4.44L63.27,67.7,41.8,89.61a3.17,3.17,0,0,0,.05,4.48,3.12,3.12,0,0,0,2.22.91,3.17,3.17,0,0,0,2.26-1L67.71,72.23,89.08,94.05a3.17,3.17,0,0,0,2.27,1,3.11,3.11,0,0,0,2.21-.91,3.17,3.17,0,0,0,0-4.48Z"/></g></g></svg>