<svg id="Layer_1" data-name="Layer 1" xmlns="http://www.w3.org/2000/svg" viewBox="0 0 46.31 36.74"><defs><style>.cls-1{fill:#56aaf3;}</style></defs><title>Image upload</title><path class="cls-1" d="M279.59,274.18a1.19,1.19,0,0,1-1.14.55h-44c-.88,0-1.13-.25-1.13-1.13V239.13c0-.88.25-1.13,1.13-1.13h44a1.19,1.19,0,0,1,1.14.55ZM278,239.63H234.92v33.46H278Z" transform="translate(-233.28 -237.99)"/><path class="cls-1" d="M265.26,253.51l-7.43,8.13a1.48,1.48,0,0,1,.45.24c1.1,1.07,2.18,2.16,3.27,3.25a2.3,2.3,0,0,1,.32.38.73.73,0,0,1-.12,1,.72.72,0,0,1-.95.09,2.24,2.24,0,0,1-.41-.35l-7.58-7.58c-.11-.11-.21-.26-.34-.42l-1.67,1.47-11.17,9.82a1.94,1.94,0,0,1-.47.34.65.65,0,0,1-.85-.21,1.44,1.44,0,0,1-.14-.83c0-.15.21-.32.36-.44l13.16-11.6c.64-.56,1-.54,1.58.07l3.2,3.2.35.33.44-.48,7.1-7.78c.65-.71,1-.73,1.69-.07q4.53,4.14,9.07,8.31a2.24,2.24,0,0,1,.33.36.78.78,0,0,1-1,1.12,2.34,2.34,0,0,1-.43-.33l-8.43-7.73Z" transform="translate(-233.28 -237.99)"/><path class="cls-1" d="M246.07,255.66a4.44,4.44,0,1,1,4.42-4.43A4.48,4.48,0,0,1,246.07,255.66Zm-2.85-4.44a2.85,2.85,0,1,0,2.84-2.83A2.83,2.83,0,0,0,243.22,251.22Z" transform="translate(-233.28 -237.99)"/></svg>