<svg id="Layer_1" data-name="Layer 1" xmlns="http://www.w3.org/2000/svg" viewBox="0 0 71.19 66.21"><defs><style>.cls-1{fill:#56aaf3;}</style></defs><title>signature upload</title><path class="cls-1" d="M222,148.08l-2.25,4,.44.34c.88.66,1,1.12.36,2l-12.09,18.16c-2.28,3.41-4.56,6.81-6.81,10.24a2.62,2.62,0,0,0-.38,1.28c0,7.39,0,14.78,0,22.17,0,1.38-.29,1.67-1.67,1.67H152.45c-1.37,0-1.64-.27-1.64-1.68V143.5c0-1.4.27-1.67,1.65-1.67q17.67,0,35.32,0a2.08,2.08,0,0,1,1.59.66c3.74,3.77,7.51,7.51,11.24,11.28a1.9,1.9,0,0,1,.54,1.13c.07,2.22.06,4.45.08,6.67,0,.29,0,.59,0,1.1.27-.37.42-.55.55-.75l9-13.54c.85-1.28,1.15-1.34,2.45-.53l.3.16c.51-.75,1-1.48,1.51-2.24a3.63,3.63,0,0,1,3.76-2,3.55,3.55,0,0,1,3.1,2.8s.06.07.09.1Zm-44.57,48.6a5,5,0,0,1-1.94-3.18,3.16,3.16,0,0,1,2.49-3.81,3.28,3.28,0,0,1,4,2.47,5.53,5.53,0,0,1-.85,4.25l2.77.26c0-.29,0-.45,0-.61a27.28,27.28,0,0,1,4.72-14.45q5.12-7.62,10.18-15.26a1.53,1.53,0,0,0,.25-.76c0-3.09,0-6.17,0-9.25,0-.13,0-.27,0-.46H188.72c-1.22,0-1.53-.3-1.53-1.51v-9.52c0-.27,0-.54,0-.81H153V205.8h46V186.89l-.42.63a28.83,28.83,0,0,1-12.81,10.94,3.61,3.61,0,0,1-.85.25,10,10,0,0,1-4.86-.44,1.6,1.6,0,0,0-1.08.07,9.34,9.34,0,0,1-7.29.49c-.69-.24-1.37-.86-2-.8s-1.21.8-1.86,1.15a9.19,9.19,0,0,1-6.93.75,1.11,1.11,0,0,1-.92-1.33c.15-.63.71-.91,1.48-.75a9.89,9.89,0,0,0,1.23.23,7.22,7.22,0,0,0,5.22-1.55,9.13,9.13,0,0,1-2.41-6.81,3.48,3.48,0,0,1,3-3.4,3.33,3.33,0,0,1,3.4,2.78,8.08,8.08,0,0,1,.17,2.81c-.2,1.43-.63,2.82-1,4.26A7.16,7.16,0,0,0,177.43,196.68Zm34.95-46.82-20.83,31.3,6,4,20.83-31.3-2.07-1.38-.47.68-7,10.53a4,4,0,0,1-.49.67,1,1,0,0,1-1.38.13,1,1,0,0,1-.36-1.29,4.54,4.54,0,0,1,.36-.6L214,152c.15-.22.29-.45.48-.74Zm-15,3.86-7.92-7.92v7.92ZM196.39,187l-6.06-4-2.18,3.79,5.61,3.73Zm-4.12,5.08-5-3.33L186,195.66l.31.2Zm25.56-41.18c.65-1,1.32-1.91,1.86-2.89a1.36,1.36,0,0,0-.59-2.06,1.32,1.32,0,0,0-1.87.5c-.66.87-1.24,1.82-1.88,2.79Zm-48.61,43.76a8.35,8.35,0,0,0,.77-4.1,4,4,0,0,0-.46-1.56,1,1,0,0,0-.8-.48,1.26,1.26,0,0,0-.81.73A5.7,5.7,0,0,0,169.22,194.64Zm9.88.67.29-.05c.18-.67.42-1.33.55-2a1.23,1.23,0,0,0-.79-1.39,1,1,0,0,0-1.25.24,1.25,1.25,0,0,0-.15,1.6C178.15,194.28,178.65,194.78,179.1,195.31Z" transform="translate(-150.81 -141.81)"/><path class="cls-1" d="M176,162.29h14.45a4.28,4.28,0,0,1,.62,0,1.07,1.07,0,0,1,0,2.14,3.32,3.32,0,0,1-.63,0h-29a3.21,3.21,0,0,1-.76-.06,1.06,1.06,0,0,1,0-2.06,3.24,3.24,0,0,1,.76-.05Z" transform="translate(-150.81 -141.81)"/><path class="cls-1" d="M175.41,170.88h14a3.19,3.19,0,0,1,.62,0,1,1,0,0,1,.89,1.07,1,1,0,0,1-.92,1c-.2,0-.41,0-.62,0H161.28c-.79,0-1.27-.44-1.26-1.08s.5-1.06,1.29-1.06Z" transform="translate(-150.81 -141.81)"/><path class="cls-1" d="M172.76,181.62h-11a4.33,4.33,0,0,1-.62,0,1.08,1.08,0,0,1-1-1.09,1.05,1.05,0,0,1,1-1,4,4,0,0,1,.49,0h22.15a4.42,4.42,0,0,1,.63,0,1.06,1.06,0,0,1,0,2.11,5.3,5.3,0,0,1-.69,0Z" transform="translate(-150.81 -141.81)"/><path class="cls-1" d="M170.3,155.88c-3,0-6,0-9,0a1.65,1.65,0,0,1-1.16-.56,1,1,0,0,1,.72-1.53,4.78,4.78,0,0,1,.76,0h17.79a1.07,1.07,0,1,1,0,2.14Z" transform="translate(-150.81 -141.81)"/></svg>