<svg xmlns="http://www.w3.org/2000/svg" viewBox="0 0 135.41 135.41"><defs><style>.cls-1{fill:#3ed68d;}.cls-2{fill:#fff;}</style></defs><g id="Layer_2" data-name="Layer 2"><g id="Layer_1-2" data-name="Layer 1"><circle class="cls-1" cx="67.7" cy="67.7" r="58.86"/><path class="cls-1" d="M113.55,24.16a2.78,2.78,0,0,1-2.64-2.72,2.85,2.85,0,0,1,2.76-2.74,2.82,2.82,0,0,1,2.71,2.78A2.86,2.86,0,0,1,113.55,24.16Z"/><path class="cls-1" d="M21.52,116.8a2.79,2.79,0,0,1-2.65-2.72,2.85,2.85,0,0,1,2.77-2.74,2.81,2.81,0,0,1,2.71,2.78A2.87,2.87,0,0,1,21.52,116.8Z"/><path class="cls-1" d="M67.7,135.41a67.49,67.49,0,0,1-40-13.09,2.5,2.5,0,1,1,3-4,62.63,62.63,0,0,0,27.94,11.46,63.92,63.92,0,0,0,18.22,0,63,63,0,0,0,53.6-62A62.1,62.1,0,0,0,117.12,29.1,2.5,2.5,0,1,1,121.05,26a67,67,0,0,1,14.36,41.69,67.66,67.66,0,0,1-67.71,67.7Z"/><path class="cls-1" d="M15.87,109.76a2.49,2.49,0,0,1-2-1A67.07,67.07,0,0,1,0,67.71,68,68,0,0,1,57.87.7,69.62,69.62,0,0,1,77.53.7,67.65,67.65,0,0,1,108.91,14a2.5,2.5,0,1,1-3,4,62.65,62.65,0,0,0-29-12.29,63.92,63.92,0,0,0-18.22,0A63,63,0,0,0,5,67.71a62.09,62.09,0,0,0,12.85,38,2.5,2.5,0,0,1-2,4Z"/><path class="cls-2" d="M60.45,79.33c-2.6,2.59-4.32,2.6-6.87,0l-4.46-4.45c-3-3-5.93-5.94-8.92-8.89a3.87,3.87,0,1,0-5.48,5.44C41.58,78.4,47.9,84.7,54,90.76a6.93,6.93,0,0,0,1.76,1.12l.48.26a5,5,0,0,0,4.08-1.71l40-40a8.42,8.42,0,0,0,.91-1,3.8,3.8,0,0,0,.6-3.52,3.85,3.85,0,0,0-2.6-2.48c-1.85-.56-3.14.25-4.5,1.63Q77.58,62.22,60.45,79.33Z"/></g></g></svg>